.
..............................Site Info...........................

 -   http://www.scenetime.com  *_*   

SceneTime is going to Close sign up on march/1, hurry up! get in before the doors are closed.

     We care to share . Join us on  http://www.scenetime.com 

    Be the first to get new release at  http://www.scenetime.com

        Seed back for speed


...................................NFO:.................................................[align=center]
        [/align]
[size=3][color=#009999]



   Breakaway 2011 BRRIP XVID AC3 - Xtreme Encode



[/color][/size]


[size=3]
[color=#CC9933]General


Complete name                            : Breakaway 2011 BRRIP XVID AC3 - Xtreme Encode.avi
Format                                   : AVI
Format/Info                              : Audio Video Interleave
Format profile                           : OpenDML
Format settings                          : rec
File size                                : 1.79 GiB
Duration                                 : 1h 40mn
Overall bit rate                         : 2 542 Kbps[/color][/size]




[size=3][color=#669900]
Video


ID                                       : 0
Format                                   : MPEG-4 Visual
Format profile                           : Advanced Simple@L5
Format settings, BVOP                    : 1
Format settings, QPel                    : No
Format settings, GMC                     : No warppoints
Format settings, Matrix                  : Default (H.263)
Codec ID                                 : XVID
Codec ID/Hint                            : XviD
Duration                                 : 1h 40mn
Bit rate                                 : 1 897 Kbps
Width                                    : 720 pixels
Height                                   : 384 pixels
Display aspect ratio                     : 1.875
Frame rate                               : 23.976 fps
Color space                              : YUV
Chroma subsampling                       : 4:2:0
Bit depth                                : 8 bits
Scan type                                : Progressive
Compression mode                         : Lossy
Bits/(Pixel*Frame)                       : 0.286
Stream size                              : 1.33 GiB (75%)[/color][/size]




[size=3][color=#009900]Audio


ID                                       : 1
Format                                   : AC-3
Format/Info                              : Audio Coding 3
Mode extension                           : CM (complete main)
Codec ID                                 : 2000
Duration                                 : 1h 40mn
Bit rate mode                            : Constant
Bit rate                                 : 640 Kbps
Channel(s)                               : 6 channels
Channel positions                        : Front: L C R, Side: L R, LFE
Sampling rate                            : 48.0 KHz
Bit depth                                : 16 bits
Compression mode                         : Lossy
Stream size                              : 460 MiB (25%)
Alignment                                : Aligned on interleaves
Interleave, duration                     : 64 ms (1.53 video frames)
Interleave, preload duration             : 192 ms[/color][/size]





[size=3][color=#6699FF]
SOURCE
Video : Blu-ray.720p.x264.DTS.MySilu
Audio : Blu-ray.720p.x264.DTS.MySilu



JUST A LITTLE MESS WITH THIS ADDES BIT OF CONTRAS 
RESIZED BIT TWEAKED BIT SHARPEN in 
SAT HUE and few othere things :)[/color][/size]




[size=3][color=#0099CC]PLOT

An ethnic Canadian hockey player struggles against traditional family 
values and discrimination from mainstream hockey players.


 [/color][/size]


[size=3][color=#CC6600]Genres: Comedy | Drama | Sport 


Director: Robert Lieberman

Writers: Noel S. Baker, Jeff Schechter,

Stars: Vinay Virmani, Russell Peters and Anupam Kher  [/color][/size]


[size=3][color=#0033FF]IMDB: http://www.imdb.com/title/tt1736552/[/color][/size]



[size=3][color=#996600]HOPE U ALL LIKE THIS IF SO PLS REP
   
IF U GOT ANYTHING TO OFFER JUST DROP ONE AT: Xtreme-Encode@hushmail.me  :)[/color][/size]



[size=3][color=#CC0000]
SCREENS:





[/color][/size]


[size=3][b][font=Times New Roman][color=#3366CC]
      GREETS:

IMAGiNE / ELEKTRI4KA / FLAWL3SS / DTRG
ViSiON / CRYS / BMB / MiSTERE / 26K
AMB / FYA / Jamie111 / VISUALiSE  
ILLUMINATI / Rx / REFiLL / BHRG
TO MY FRIENDS  AND ALL OTHER GROUPS  :)[/color][/font][/b][/size]